<svg width="253" height="50" viewBox="0 0 253 50" fill="none" xmlns="http://www.w3.org/2000/svg">
<rect x="8.70667" width="35.18" height="12.313" rx="6.15651" transform="rotate(45 8.70667 0)" fill="#171717" fill-opacity="0.2"/>
<rect y="41.2934" width="35.18" height="12.313" rx="6.15651" transform="rotate(-45 0 41.2934)" fill="#171717"/>
<path d="M83.52 11V15.32H74.44V39H69.76V15.32H60.68V11H83.52ZM113.179 11H117.379V39H112.739V18.92L103.019 31.24H102.019L92.3388 18.96V39H87.6588V11H91.8988L102.539 24.56L113.179 11ZM135.019 11C137.793 11 140.246 11.5867 142.379 12.76C144.539 13.9067 146.206 15.5467 147.379 17.68C148.553 19.7867 149.139 22.2267 149.139 25C149.139 27.7733 148.553 30.2267 147.379 32.36C146.206 34.4667 144.539 36.1067 142.379 37.28C140.246 38.4267 137.793 39 135.019 39H124.299V11H135.019ZM135.019 34.68C136.859 34.68 138.486 34.28 139.899 33.48C141.339 32.6533 142.446 31.5067 143.219 30.04C144.019 28.5733 144.419 26.8933 144.419 25C144.419 23.1067 144.019 21.4267 143.219 19.96C142.446 18.4933 141.339 17.36 139.899 16.56C138.486 15.7333 136.859 15.32 135.019 15.32H128.979V34.68H135.019ZM179.858 11H184.058V39H179.418V18.92L169.698 31.24H168.698L159.018 18.96V39H154.338V11H158.578L169.218 24.56L179.858 11Z" fill="#171717"/>
<path d="M83.52 11H84.52V10H83.52V11ZM83.52 15.32V16.32H84.52V15.32H83.52ZM74.44 15.32V14.32H73.44V15.32H74.44ZM74.44 39V40H75.44V39H74.44ZM69.76 39H68.76V40H69.76V39ZM69.76 15.32H70.76V14.32H69.76V15.32ZM60.68 15.32H59.68V16.32H60.68V15.32ZM60.68 11V10H59.68V11H60.68ZM82.52 11V15.32H84.52V11H82.52ZM83.52 14.32H74.44V16.32H83.52V14.32ZM73.44 15.32V39H75.44V15.32H73.44ZM74.44 38H69.76V40H74.44V38ZM70.76 39V15.32H68.76V39H70.76ZM69.76 14.32H60.68V16.32H69.76V14.32ZM61.68 15.32V11H59.68V15.32H61.68ZM60.68 12H83.52V10H60.68V12ZM113.179 11V10H112.692L112.392 10.3827L113.179 11ZM117.379 11H118.379V10H117.379V11ZM117.379 39V40H118.379V39H117.379ZM112.739 39H111.739V40H112.739V39ZM112.739 18.92H113.739V16.038L111.954 18.3006L112.739 18.92ZM103.019 31.24V32.24H103.504L103.804 31.8594L103.019 31.24ZM102.019 31.24L101.233 31.8591L101.534 32.24H102.019V31.24ZM92.3388 18.96L93.1241 18.3409L91.3388 16.0761V18.96H92.3388ZM92.3388 39V40H93.3388V39H92.3388ZM87.6588 39H86.6588V40H87.6588V39ZM87.6588 11V10H86.6588V11H87.6588ZM91.8988 11L92.6855 10.3827L92.3852 10H91.8988V11ZM102.539 24.56L101.752 25.1773L102.539 26.1799L103.325 25.1773L102.539 24.56ZM113.179 12H117.379V10H113.179V12ZM116.379 11V39H118.379V11H116.379ZM117.379 38H112.739V40H117.379V38ZM113.739 39V18.92H111.739V39H113.739ZM111.954 18.3006L102.234 30.6206L103.804 31.8594L113.524 19.5394L111.954 18.3006ZM103.019 30.24H102.019V32.24H103.019V30.24ZM102.804 30.6209L93.1241 18.3409L91.5534 19.5791L101.233 31.8591L102.804 30.6209ZM91.3388 18.96V39H93.3388V18.96H91.3388ZM92.3388 38H87.6588V40H92.3388V38ZM88.6588 39V11H86.6588V39H88.6588ZM87.6588 12H91.8988V10H87.6588V12ZM91.112 11.6173L101.752 25.1773L103.325 23.9427L92.6855 10.3827L91.112 11.6173ZM103.325 25.1773L113.965 11.6173L112.392 10.3827L101.752 23.9427L103.325 25.1773ZM142.379 12.76L141.897 13.6362L141.904 13.6398L141.91 13.6433L142.379 12.76ZM147.379 17.68L146.503 18.1619L146.506 18.1666L147.379 17.68ZM147.379 32.36L148.253 32.8466L148.256 32.8419L147.379 32.36ZM142.379 37.28L142.853 38.1608L142.857 38.1587L142.379 37.28ZM124.299 39H123.299V40H124.299V39ZM124.299 11V10H123.299V11H124.299ZM139.899 33.48L140.392 34.3503L140.397 34.3473L139.899 33.48ZM143.219 30.04L142.341 29.5611L142.335 29.5736L143.219 30.04ZM143.219 19.96L142.335 20.4265L142.341 20.4389L143.219 19.96ZM139.899 16.56L139.394 17.4232L139.404 17.4288L139.414 17.4342L139.899 16.56ZM128.979 15.32V14.32H127.979V15.32H128.979ZM128.979 34.68H127.979V35.68H128.979V34.68ZM135.019 12C137.648 12 139.931 12.5548 141.897 13.6362L142.861 11.8838C140.561 10.6185 137.937 10 135.019 10V12ZM141.91 13.6433C143.899 14.6991 145.424 16.2 146.503 18.1619L148.256 17.1981C146.988 14.8934 145.179 13.1143 142.848 11.8767L141.91 13.6433ZM146.506 18.1666C147.584 20.1034 148.139 22.3711 148.139 25H150.139C150.139 22.0822 149.521 19.4699 148.253 17.1934L146.506 18.1666ZM148.139 25C148.139 27.6286 147.585 29.9119 146.503 31.8781L148.256 32.8419C149.521 30.5415 150.139 27.9181 150.139 25H148.139ZM146.506 31.8734C145.427 33.8111 143.899 35.3166 141.902 36.4013L142.857 38.1587C145.18 36.8967 146.986 35.1223 148.253 32.8466L146.506 31.8734ZM141.906 36.3992C139.938 37.4569 137.652 38 135.019 38V40C137.934 40 140.554 39.3964 142.853 38.1608L141.906 36.3992ZM135.019 38H124.299V40H135.019V38ZM125.299 39V11H123.299V39H125.299ZM124.299 12H135.019V10H124.299V12ZM135.019 35.68C137.009 35.68 138.809 35.2461 140.392 34.3503L139.407 32.6097C138.163 33.3139 136.71 33.68 135.019 33.68V35.68ZM140.397 34.3473C142.001 33.4264 143.242 32.1409 144.104 30.5064L142.335 29.5736C141.65 30.8725 140.677 31.8802 139.402 32.6127L140.397 34.3473ZM144.097 30.5189C144.988 28.8867 145.419 27.038 145.419 25H143.419C143.419 26.7486 143.051 28.26 142.341 29.5611L144.097 30.5189ZM145.419 25C145.419 22.9619 144.988 21.1133 144.097 19.4811L142.341 20.4389C143.051 21.74 143.419 23.2514 143.419 25H145.419ZM144.104 19.4936C143.241 17.8564 141.996 16.5808 140.385 15.6858L139.414 17.4342C140.683 18.1392 141.651 19.1303 142.335 20.4264L144.104 19.4936ZM140.404 15.6968C138.819 14.7699 137.014 14.32 135.019 14.32V16.32C136.704 16.32 138.153 16.6968 139.394 17.4232L140.404 15.6968ZM135.019 14.32H128.979V16.32H135.019V14.32ZM127.979 15.32V34.68H129.979V15.32H127.979ZM128.979 35.68H135.019V33.68H128.979V35.68ZM179.858 11V10H179.372L179.072 10.3827L179.858 11ZM184.058 11H185.058V10H184.058V11ZM184.058 39V40H185.058V39H184.058ZM179.418 39H178.418V40H179.418V39ZM179.418 18.92H180.418V16.038L178.633 18.3006L179.418 18.92ZM169.698 31.24V32.24H170.183L170.484 31.8594L169.698 31.24ZM168.698 31.24L167.913 31.8591L168.213 32.24H168.698V31.24ZM159.018 18.96L159.804 18.3409L158.018 16.0761V18.96H159.018ZM159.018 39V40H160.018V39H159.018ZM154.338 39H153.338V40H154.338V39ZM154.338 11V10H153.338V11H154.338ZM158.578 11L159.365 10.3827L159.065 10H158.578V11ZM169.218 24.56L168.432 25.1773L169.218 26.1799L170.005 25.1773L169.218 24.56ZM179.858 12H184.058V10H179.858V12ZM183.058 11V39H185.058V11H183.058ZM184.058 38H179.418V40H184.058V38ZM180.418 39V18.92H178.418V39H180.418ZM178.633 18.3006L168.913 30.6206L170.484 31.8594L180.204 19.5394L178.633 18.3006ZM169.698 30.24H168.698V32.24H169.698V30.24ZM169.484 30.6209L159.804 18.3409L158.233 19.5791L167.913 31.8591L169.484 30.6209ZM158.018 18.96V39H160.018V18.96H158.018ZM159.018 38H154.338V40H159.018V38ZM155.338 39V11H153.338V39H155.338ZM154.338 12H158.578V10H154.338V12ZM157.792 11.6173L168.432 25.1773L170.005 23.9427L159.365 10.3827L157.792 11.6173ZM170.005 25.1773L180.645 11.6173L179.072 10.3827L168.432 23.9427L170.005 25.1773Z" fill="#171717"/>
</svg>
