<svg width="257" height="58" viewBox="0 0 257 58" fill="none" xmlns="http://www.w3.org/2000/svg">
<rect x="12.7067" width="35.18" height="12.313" rx="6.15651" transform="rotate(45 12.7067 0)" fill="#FAFAFF" fill-opacity="0.2"/>
<g filter="url(#filter0_d_105_2)">
<rect x="4" y="41.2934" width="35.18" height="12.313" rx="6.15651" transform="rotate(-45 4 41.2934)" fill="#FAFAFF"/>
</g>
<path d="M87.52 11V15.32H78.44V39H73.76V15.32H64.68V11H87.52ZM117.179 11H121.379V39H116.739V18.92L107.019 31.24H106.019L96.3388 18.96V39H91.6588V11H95.8988L106.539 24.56L117.179 11ZM139.019 11C141.793 11 144.246 11.5867 146.379 12.76C148.539 13.9067 150.206 15.5467 151.379 17.68C152.553 19.7867 153.139 22.2267 153.139 25C153.139 27.7733 152.553 30.2267 151.379 32.36C150.206 34.4667 148.539 36.1067 146.379 37.28C144.246 38.4267 141.793 39 139.019 39H128.299V11H139.019ZM139.019 34.68C140.859 34.68 142.486 34.28 143.899 33.48C145.339 32.6533 146.446 31.5067 147.219 30.04C148.019 28.5733 148.419 26.8933 148.419 25C148.419 23.1067 148.019 21.4267 147.219 19.96C146.446 18.4933 145.339 17.36 143.899 16.56C142.486 15.7333 140.859 15.32 139.019 15.32H132.979V34.68H139.019ZM183.858 11H188.058V39H183.418V18.92L173.698 31.24H172.698L163.018 18.96V39H158.338V11H162.578L173.218 24.56L183.858 11Z" fill="#FAFAFF"/>
<path d="M87.52 11H88.52V10H87.52V11ZM87.52 15.32V16.32H88.52V15.32H87.52ZM78.44 15.32V14.32H77.44V15.32H78.44ZM78.44 39V40H79.44V39H78.44ZM73.76 39H72.76V40H73.76V39ZM73.76 15.32H74.76V14.32H73.76V15.32ZM64.68 15.32H63.68V16.32H64.68V15.32ZM64.68 11V10H63.68V11H64.68ZM86.52 11V15.32H88.52V11H86.52ZM87.52 14.32H78.44V16.32H87.52V14.32ZM77.44 15.32V39H79.44V15.32H77.44ZM78.44 38H73.76V40H78.44V38ZM74.76 39V15.32H72.76V39H74.76ZM73.76 14.32H64.68V16.32H73.76V14.32ZM65.68 15.32V11H63.68V15.32H65.68ZM64.68 12H87.52V10H64.68V12ZM117.179 11V10H116.692L116.392 10.3827L117.179 11ZM121.379 11H122.379V10H121.379V11ZM121.379 39V40H122.379V39H121.379ZM116.739 39H115.739V40H116.739V39ZM116.739 18.92H117.739V16.038L115.954 18.3006L116.739 18.92ZM107.019 31.24V32.24H107.504L107.804 31.8594L107.019 31.24ZM106.019 31.24L105.233 31.8591L105.534 32.24H106.019V31.24ZM96.3387 18.96L97.1241 18.3409L95.3388 16.0761V18.96H96.3387ZM96.3387 39V40H97.3387V39H96.3387ZM91.6588 39H90.6588V40H91.6588V39ZM91.6588 11V10H90.6588V11H91.6588ZM95.8988 11L96.6855 10.3827L96.3852 10H95.8988V11ZM106.539 24.56L105.752 25.1773L106.539 26.1799L107.325 25.1773L106.539 24.56ZM117.179 12H121.379V10H117.179V12ZM120.379 11V39H122.379V11H120.379ZM121.379 38H116.739V40H121.379V38ZM117.739 39V18.92H115.739V39H117.739ZM115.954 18.3006L106.234 30.6206L107.804 31.8594L117.524 19.5394L115.954 18.3006ZM107.019 30.24H106.019V32.24H107.019V30.24ZM106.804 30.6209L97.1241 18.3409L95.5534 19.5791L105.233 31.8591L106.804 30.6209ZM95.3388 18.96V39H97.3387V18.96H95.3388ZM96.3387 38H91.6588V40H96.3387V38ZM92.6588 39V11H90.6588V39H92.6588ZM91.6588 12H95.8988V10H91.6588V12ZM95.112 11.6173L105.752 25.1773L107.325 23.9427L96.6855 10.3827L95.112 11.6173ZM107.325 25.1773L117.965 11.6173L116.392 10.3827L105.752 23.9427L107.325 25.1773ZM146.379 12.76L145.897 13.6362L145.904 13.6398L145.91 13.6433L146.379 12.76ZM151.379 17.68L150.503 18.1619L150.506 18.1666L151.379 17.68ZM151.379 32.36L152.253 32.8466L152.256 32.8419L151.379 32.36ZM146.379 37.28L146.853 38.1608L146.857 38.1587L146.379 37.28ZM128.299 39H127.299V40H128.299V39ZM128.299 11V10H127.299V11H128.299ZM143.899 33.48L144.392 34.3503L144.397 34.3473L143.899 33.48ZM147.219 30.04L146.341 29.5611L146.335 29.5736L147.219 30.04ZM147.219 19.96L146.335 20.4265L146.341 20.4389L147.219 19.96ZM143.899 16.56L143.394 17.4232L143.404 17.4288L143.414 17.4342L143.899 16.56ZM132.979 15.32V14.32H131.979V15.32H132.979ZM132.979 34.68H131.979V35.68H132.979V34.68ZM139.019 12C141.648 12 143.931 12.5548 145.897 13.6362L146.861 11.8838C144.561 10.6185 141.937 10 139.019 10V12ZM145.91 13.6433C147.899 14.6991 149.424 16.2 150.503 18.1619L152.256 17.1981C150.988 14.8934 149.179 13.1143 146.848 11.8767L145.91 13.6433ZM150.506 18.1666C151.584 20.1034 152.139 22.3711 152.139 25H154.139C154.139 22.0822 153.521 19.4699 152.253 17.1934L150.506 18.1666ZM152.139 25C152.139 27.6286 151.585 29.9119 150.503 31.8781L152.256 32.8419C153.521 30.5415 154.139 27.9181 154.139 25H152.139ZM150.506 31.8734C149.427 33.8111 147.899 35.3166 145.902 36.4013L146.857 38.1587C149.18 36.8967 150.986 35.1222 152.253 32.8466L150.506 31.8734ZM145.906 36.3992C143.938 37.4569 141.652 38 139.019 38V40C141.934 40 144.554 39.3964 146.853 38.1608L145.906 36.3992ZM139.019 38H128.299V40H139.019V38ZM129.299 39V11H127.299V39H129.299ZM128.299 12H139.019V10H128.299V12ZM139.019 35.68C141.009 35.68 142.809 35.2461 144.392 34.3503L143.407 32.6097C142.163 33.3139 140.71 33.68 139.019 33.68V35.68ZM144.397 34.3473C146.001 33.4264 147.242 32.1409 148.104 30.5064L146.335 29.5736C145.65 30.8725 144.677 31.8802 143.402 32.6127L144.397 34.3473ZM148.097 30.5189C148.988 28.8867 149.419 27.038 149.419 25H147.419C147.419 26.7486 147.051 28.26 146.341 29.5611L148.097 30.5189ZM149.419 25C149.419 22.962 148.988 21.1133 148.097 19.4811L146.341 20.4389C147.051 21.74 147.419 23.2514 147.419 25H149.419ZM148.104 19.4936C147.241 17.8564 145.996 16.5808 144.385 15.6858L143.414 17.4342C144.683 18.1392 145.651 19.1303 146.335 20.4264L148.104 19.4936ZM144.404 15.6968C142.819 14.7699 141.014 14.32 139.019 14.32V16.32C140.704 16.32 142.153 16.6968 143.394 17.4232L144.404 15.6968ZM139.019 14.32H132.979V16.32H139.019V14.32ZM131.979 15.32V34.68H133.979V15.32H131.979ZM132.979 35.68H139.019V33.68H132.979V35.68ZM183.858 11V10H183.372L183.072 10.3827L183.858 11ZM188.058 11H189.058V10H188.058V11ZM188.058 39V40H189.058V39H188.058ZM183.418 39H182.418V40H183.418V39ZM183.418 18.92H184.418V16.038L182.633 18.3006L183.418 18.92ZM173.698 31.24V32.24H174.183L174.484 31.8594L173.698 31.24ZM172.698 31.24L171.913 31.8591L172.213 32.24H172.698V31.24ZM163.018 18.96L163.804 18.3409L162.018 16.0761V18.96H163.018ZM163.018 39V40H164.018V39H163.018ZM158.338 39H157.338V40H158.338V39ZM158.338 11V10H157.338V11H158.338ZM162.578 11L163.365 10.3827L163.065 10H162.578V11ZM173.218 24.56L172.432 25.1773L173.218 26.1799L174.005 25.1773L173.218 24.56ZM183.858 12H188.058V10H183.858V12ZM187.058 11V39H189.058V11H187.058ZM188.058 38H183.418V40H188.058V38ZM184.418 39V18.92H182.418V39H184.418ZM182.633 18.3006L172.913 30.6206L174.484 31.8594L184.204 19.5394L182.633 18.3006ZM173.698 30.24H172.698V32.24H173.698V30.24ZM173.484 30.6209L163.804 18.3409L162.233 19.5791L171.913 31.8591L173.484 30.6209ZM162.018 18.96V39H164.018V18.96H162.018ZM163.018 38H158.338V40H163.018V38ZM159.338 39V11H157.338V39H159.338ZM158.338 12H162.578V10H158.338V12ZM161.792 11.6173L172.432 25.1773L174.005 23.9427L163.365 10.3827L161.792 11.6173ZM174.005 25.1773L184.645 11.6173L183.072 10.3827L172.432 23.9427L174.005 25.1773Z" fill="#FAFAFF"/>
<defs>
<filter id="filter0_d_105_2" x="0.550049" y="16.9675" width="40.4825" height="40.4824" filterUnits="userSpaceOnUse" color-interpolation-filters="sRGB">
<feFlood flood-opacity="0" result="BackgroundImageFix"/>
<feColorMatrix in="SourceAlpha" type="matrix" values="0 0 0 0 0 0 0 0 0 0 0 0 0 0 0 0 0 0 127 0" result="hardAlpha"/>
<feMorphology radius="2" operator="dilate" in="SourceAlpha" result="effect1_dropShadow_105_2"/>
<feOffset dy="4"/>
<feGaussianBlur stdDeviation="2"/>
<feComposite in2="hardAlpha" operator="out"/>
<feColorMatrix type="matrix" values="0 0 0 0 0 0 0 0 0 0 0 0 0 0 0 0 0 0 0.25 0"/>
<feBlend mode="normal" in2="BackgroundImageFix" result="effect1_dropShadow_105_2"/>
<feBlend mode="normal" in="SourceGraphic" in2="effect1_dropShadow_105_2" result="shape"/>
</filter>
</defs>
</svg>
